<?xml version="1.0" encoding="UTF-8"?>
<!DOCTYPE svg  PUBLIC '-//W3C//DTD SVG 1.1//EN'  'http://www.w3.org/Graphics/SVG/1.1/DTD/svg11.dtd'>
<svg width="800px" height="800px" fill="#000000" version="1.1" viewBox="0 0 32 32" xmlns="http://www.w3.org/2000/svg">
<g>
<title>arrow-up-circle</title>
<desc>Created with Sketch Beta.</desc>
<g fill="none" fill-rule="evenodd">
<g transform="translate(-362 -1089)" fill="#F692AE">
<path d="m384.54 1105.5c-0.39 0.39-1.023 0.39-1.414 0l-4.121-4.13v10.59c0 0.55-0.447 1-1 1s-1-0.45-1-1v-10.59l-4.121 4.13c-0.391 0.39-1.025 0.39-1.414 0-0.391-0.4-0.391-1.03 0-1.42l5.656-5.66c0.24-0.24 0.568-0.31 0.879-0.25 0.311-0.06 0.639 0.01 0.879 0.25l5.656 5.66c0.391 0.39 0.391 1.02 0 1.42zm-6.535-16.54c-8.837 0-16 7.16-16 16s7.163 16 16 16 16-7.16 16-16-7.163-16-16-16z"></path>
</g>
</g>
</g>
</svg>
